<svg width="14" height="14" viewBox="0 0 14 14" fill="none" xmlns="http://www.w3.org/2000/svg">
<g clip-path="url(#clip0)">
<path d="M12.4277 8.62856L11.3923 7.59313L6.73302 2.93407C5.87432 2.08181 4.48821 2.08438 3.63273 2.93986C2.77725 3.79534 2.77468 5.18145 3.62695 6.04015L8.28601 10.7006C8.47656 10.8913 8.78566 10.8913 8.97633 10.7006C9.16689 10.5099 9.16689 10.2009 8.97633 10.0103L4.31727 5.34983C3.84076 4.87332 3.84076 4.1009 4.31727 3.6244C4.79377 3.14789 5.56619 3.14789 6.0427 3.6244L10.7032 8.28346L11.7386 9.31878C12.5964 10.1769 12.5961 11.568 11.738 12.4257C10.8799 13.2834 9.48895 13.2832 8.63111 12.4251L7.76845 11.5621L2.93673 6.73036L2.59152 6.38526C1.38492 5.14094 1.40025 3.15861 2.62581 1.93294C3.85148 0.70738 5.83381 0.692053 7.07813 1.89864L12.255 7.07558C12.3783 7.19883 12.5581 7.24695 12.7264 7.20183C12.8949 7.15671 13.0265 7.02521 13.0716 6.85673C13.1168 6.68824 13.0685 6.50862 12.9453 6.38526L7.76845 1.20843C6.1472 -0.405432 3.52556 -0.402431 1.90805 1.21518C0.29044 2.83268 0.287439 5.45432 1.9013 7.07558L7.07813 12.2524L7.94208 13.1154C9.188 14.3121 11.1625 14.2922 12.3839 13.0704C13.6054 11.8487 13.6248 9.87417 12.4277 8.62856Z" fill="#C0C5D0"/>
</g>
<defs>
<clipPath id="clip0">
<rect width="14" height="14" fill="white"/>
</clipPath>
</defs>
</svg>
