<svg width="17" height="17" viewBox="0 0 17 17" fill="none" xmlns="http://www.w3.org/2000/svg">
<path d="M15.5833 2.125H1.41668C0.635342 2.125 0 2.76034 0 3.54168V13.4584C0 14.2397 0.635342 14.875 1.41668 14.875H15.5834C16.3647 14.875 17 14.2397 17 13.4583V3.54168C17 2.76034 16.3647 2.125 15.5833 2.125ZM1.41668 2.83332H15.5834C15.6356 2.83332 15.6815 2.85235 15.7305 2.86311C14.504 3.9856 10.4372 7.70608 9.01398 8.98835C8.90262 9.08866 8.72313 9.20832 8.50003 9.20832C8.27694 9.20832 8.09745 9.08866 7.98572 8.98802C6.56266 7.70595 2.49558 3.98527 1.26929 2.86317C1.31836 2.85241 1.36445 2.83332 1.41668 2.83332ZM0.708322 13.4583V3.54168C0.708322 3.47228 0.72924 3.40933 0.747967 3.34591C1.68669 4.20508 4.52436 6.80103 6.36434 8.47423C4.53033 10.0496 1.69193 12.7407 0.745742 13.6429C0.729041 13.5827 0.708322 13.5238 0.708322 13.4583ZM15.5833 14.1667H1.41668C1.3601 14.1667 1.3098 14.147 1.25697 14.1343C2.2347 13.2023 5.09117 10.4957 6.89294 8.95435C7.12781 9.16742 7.34237 9.36169 7.51151 9.51409C7.80343 9.77766 8.14513 9.91668 8.5 9.91668C8.85487 9.91668 9.19657 9.77762 9.48812 9.51442C9.65733 9.36195 9.87205 9.16752 10.1071 8.95435C11.9089 10.4956 14.765 13.2019 15.743 14.1343C15.6902 14.147 15.64 14.1667 15.5833 14.1667ZM16.2917 13.4583C16.2917 13.5238 16.271 13.5827 16.2543 13.6429C15.3077 12.7402 12.4697 10.0495 10.6357 8.47427C12.4757 6.80106 15.313 4.20534 16.252 3.34585C16.2708 3.40926 16.2917 3.47225 16.2917 3.54164V13.4583Z" fill="#C0C5D0"/>
</svg>
