<svg width="72" height="72" viewBox="0 0 72 72" fill="none" xmlns="http://www.w3.org/2000/svg">
<circle cx="36" cy="36" r="36" fill="white"/>
<g clip-path="url(#clip0)">
<path d="M32.0625 27H29.25V54H32.625C32.4758 54 32.3327 53.9407 32.2273 53.8352C32.1218 53.7298 32.0625 53.5867 32.0625 53.4375V51.1875C32.0625 51.0383 32.1218 50.8952 32.2273 50.7898C32.3327 50.6843 32.4758 50.625 32.625 50.625C32.7742 50.625 32.9173 50.6843 33.0227 50.7898C33.1282 50.8952 33.1875 51.0383 33.1875 51.1875V53.4375C33.1875 53.5867 33.1282 53.7298 33.0227 53.8352C32.9173 53.9407 32.7742 54 32.625 54H36C35.8508 54 35.7077 53.9407 35.6023 53.8352C35.4968 53.7298 35.4375 53.5867 35.4375 53.4375V51.1875C35.4375 51.0383 35.4968 50.8952 35.6023 50.7898C35.7077 50.6843 35.8508 50.625 36 50.625C36.1492 50.625 36.2923 50.6843 36.3977 50.7898C36.5032 50.8952 36.5625 51.0383 36.5625 51.1875V53.4375C36.5625 53.5867 36.5032 53.7298 36.3977 53.8352C36.2923 53.9407 36.1492 54 36 54H39.375C39.2258 54 39.0827 53.9407 38.9773 53.8352C38.8718 53.7298 38.8125 53.5867 38.8125 53.4375V51.1875C38.8125 51.0383 38.8718 50.8952 38.9773 50.7898C39.0827 50.6843 39.2258 50.625 39.375 50.625C39.5242 50.625 39.6673 50.6843 39.7727 50.7898C39.8782 50.8952 39.9375 51.0383 39.9375 51.1875V53.4375C39.9375 53.5867 39.8782 53.7298 39.7727 53.8352C39.6673 53.9407 39.5242 54 39.375 54H42.75V27H32.0625ZM33.1875 48.375C33.1875 48.5242 33.1282 48.6673 33.0227 48.7727C32.9173 48.8782 32.7742 48.9375 32.625 48.9375C32.4758 48.9375 32.3327 48.8782 32.2273 48.7727C32.1218 48.6673 32.0625 48.5242 32.0625 48.375V35.4375C32.0625 35.2883 32.1218 35.1452 32.2273 35.0398C32.3327 34.9343 32.4758 34.875 32.625 34.875C32.7742 34.875 32.9173 34.9343 33.0227 35.0398C33.1282 35.1452 33.1875 35.2883 33.1875 35.4375V48.375ZM33.1875 32.0625C33.1875 32.2117 33.1282 32.3548 33.0227 32.4602C32.9173 32.5657 32.7742 32.625 32.625 32.625C32.4758 32.625 32.3327 32.5657 32.2273 32.4602C32.1218 32.3548 32.0625 32.2117 32.0625 32.0625V30.375C32.0625 30.2258 32.1218 30.0827 32.2273 29.9773C32.3327 29.8718 32.4758 29.8125 32.625 29.8125C32.7742 29.8125 32.9173 29.8718 33.0227 29.9773C33.1282 30.0827 33.1875 30.2258 33.1875 30.375V32.0625ZM36.5625 48.375C36.5625 48.5242 36.5032 48.6673 36.3977 48.7727C36.2923 48.8782 36.1492 48.9375 36 48.9375C35.8508 48.9375 35.7077 48.8782 35.6023 48.7727C35.4968 48.6673 35.4375 48.5242 35.4375 48.375V46.6875C35.4375 46.5383 35.4968 46.3952 35.6023 46.2898C35.7077 46.1843 35.8508 46.125 36 46.125C36.1492 46.125 36.2923 46.1843 36.3977 46.2898C36.5032 46.3952 36.5625 46.5383 36.5625 46.6875V48.375ZM36.5625 42.75C36.5625 42.8992 36.5032 43.0423 36.3977 43.1477C36.2923 43.2532 36.1492 43.3125 36 43.3125C35.8508 43.3125 35.7077 43.2532 35.6023 43.1477C35.4968 43.0423 35.4375 42.8992 35.4375 42.75V41.0625C35.4375 40.9133 35.4968 40.7702 35.6023 40.6648C35.7077 40.5593 35.8508 40.5 36 40.5C36.1492 40.5 36.2923 40.5593 36.3977 40.6648C36.5032 40.7702 36.5625 40.9133 36.5625 41.0625V42.75ZM36.5625 37.6875C36.5625 37.8367 36.5032 37.9798 36.3977 38.0852C36.2923 38.1907 36.1492 38.25 36 38.25C35.8508 38.25 35.7077 38.1907 35.6023 38.0852C35.4968 37.9798 35.4375 37.8367 35.4375 37.6875V36C35.4375 35.8508 35.4968 35.7077 35.6023 35.6023C35.7077 35.4968 35.8508 35.4375 36 35.4375C36.1492 35.4375 36.2923 35.4968 36.3977 35.6023C36.5032 35.7077 36.5625 35.8508 36.5625 36V37.6875ZM36.5625 32.0625C36.5625 32.2117 36.5032 32.3548 36.3977 32.4602C36.2923 32.5657 36.1492 32.625 36 32.625C35.8508 32.625 35.7077 32.5657 35.6023 32.4602C35.4968 32.3548 35.4375 32.2117 35.4375 32.0625V30.375C35.4375 30.2258 35.4968 30.0827 35.6023 29.9773C35.7077 29.8718 35.8508 29.8125 36 29.8125C36.1492 29.8125 36.2923 29.8718 36.3977 29.9773C36.5032 30.0827 36.5625 30.2258 36.5625 30.375V32.0625ZM39.9375 48.375C39.9375 48.5242 39.8782 48.6673 39.7727 48.7727C39.6673 48.8782 39.5242 48.9375 39.375 48.9375C39.2258 48.9375 39.0827 48.8782 38.9773 48.7727C38.8718 48.6673 38.8125 48.5242 38.8125 48.375V35.4375C38.8125 35.2883 38.8718 35.1452 38.9773 35.0398C39.0827 34.9343 39.2258 34.875 39.375 34.875C39.5242 34.875 39.6673 34.9343 39.7727 35.0398C39.8782 35.1452 39.9375 35.2883 39.9375 35.4375V48.375ZM39.9375 32.0625C39.9375 32.2117 39.8782 32.3548 39.7727 32.4602C39.6673 32.5657 39.5242 32.625 39.375 32.625C39.2258 32.625 39.0827 32.5657 38.9773 32.4602C38.8718 32.3548 38.8125 32.2117 38.8125 32.0625V30.375C38.8125 30.2258 38.8718 30.0827 38.9773 29.9773C39.0827 29.8718 39.2258 29.8125 39.375 29.8125C39.5242 29.8125 39.6673 29.8718 39.7727 29.9773C39.8782 30.0827 39.9375 30.2258 39.9375 30.375V32.0625Z" fill="#5092E1"/>
<path d="M36.5625 21.9375V18.5625C36.5625 18.4133 36.5032 18.2702 36.3977 18.1648C36.2923 18.0593 36.1492 18 36 18C35.8508 18 35.7077 18.0593 35.6023 18.1648C35.4968 18.2702 35.4375 18.4133 35.4375 18.5625V21.9375H32.0625V25.875H35.4375V24.1875C35.4375 24.0383 35.4968 23.8952 35.6023 23.7898C35.7077 23.6843 35.8508 23.625 36 23.625C36.1492 23.625 36.2923 23.6843 36.3977 23.7898C36.5032 23.8952 36.5625 24.0383 36.5625 24.1875V25.875H39.9375V21.9375H36.5625Z" fill="#5092E1"/>
<path d="M21.375 35.4375H19.6875V33.75C19.6875 33.6008 19.6282 33.4577 19.5227 33.3523C19.4173 33.2468 19.2742 33.1875 19.125 33.1875C18.9758 33.1875 18.8327 33.2468 18.7273 33.3523C18.6218 33.4577 18.5625 33.6008 18.5625 33.75V53.4375C18.5625 53.5867 18.6218 53.7298 18.7273 53.8352C18.8327 53.9407 18.9758 54 19.125 54H21.375V35.4375Z" fill="#5092E1"/>
<path d="M23.625 35.4375V33.75C23.625 33.6008 23.5657 33.4577 23.4602 33.3523C23.3548 33.2468 23.2117 33.1875 23.0625 33.1875C22.9133 33.1875 22.7702 33.2468 22.6648 33.3523C22.5593 33.4577 22.5 33.6008 22.5 33.75V54H25.875C25.7258 54 25.5827 53.9407 25.4773 53.8352C25.3718 53.7298 25.3125 53.5867 25.3125 53.4375V51.1875C25.3125 51.0383 25.3718 50.8952 25.4773 50.7898C25.5827 50.6843 25.7258 50.625 25.875 50.625C26.0242 50.625 26.1673 50.6843 26.2727 50.7898C26.3782 50.8952 26.4375 51.0383 26.4375 51.1875V53.4375C26.4375 53.5867 26.3782 53.7298 26.2727 53.8352C26.1673 53.9407 26.0242 54 25.875 54H28.125V35.4375H23.625ZM26.4375 48.375C26.4375 48.5242 26.3782 48.6673 26.2727 48.7727C26.1673 48.8782 26.0242 48.9375 25.875 48.9375C25.7258 48.9375 25.5827 48.8782 25.4773 48.7727C25.3718 48.6673 25.3125 48.5242 25.3125 48.375V46.6875C25.3125 46.5383 25.3718 46.3952 25.4773 46.2898C25.5827 46.1843 25.7258 46.125 25.875 46.125C26.0242 46.125 26.1673 46.1843 26.2727 46.2898C26.3782 46.3952 26.4375 46.5383 26.4375 46.6875V48.375ZM26.4375 42.75C26.4375 42.8992 26.3782 43.0423 26.2727 43.1477C26.1673 43.2532 26.0242 43.3125 25.875 43.3125C25.7258 43.3125 25.5827 43.2532 25.4773 43.1477C25.3718 43.0423 25.3125 42.8992 25.3125 42.75V41.0625C25.3125 40.9133 25.3718 40.7702 25.4773 40.6648C25.5827 40.5593 25.7258 40.5 25.875 40.5C26.0242 40.5 26.1673 40.5593 26.2727 40.6648C26.3782 40.7702 26.4375 40.9133 26.4375 41.0625V42.75Z" fill="#5092E1"/>
<path d="M53.4375 33.75C53.4375 33.6008 53.3782 33.4577 53.2727 33.3523C53.1673 33.2468 53.0242 33.1875 52.875 33.1875C52.7258 33.1875 52.5827 33.2468 52.4773 33.3523C52.3718 33.4577 52.3125 33.6008 52.3125 33.75V35.4375H50.625V54H52.8868C53.036 54 53.1791 53.9407 53.2846 53.8352C53.3901 53.7298 53.4493 53.5867 53.4493 53.4375L53.4375 33.75Z" fill="#5092E1"/>
<path d="M49.5 33.75C49.5 33.6008 49.4407 33.4577 49.3352 33.3523C49.2298 33.2468 49.0867 33.1875 48.9375 33.1875C48.7883 33.1875 48.6452 33.2468 48.5398 33.3523C48.4343 33.4577 48.375 33.6008 48.375 33.75V35.4375H43.875V54H46.125C45.9758 54 45.8327 53.9407 45.7273 53.8352C45.6218 53.7298 45.5625 53.5867 45.5625 53.4375V51.1875C45.5625 51.0383 45.6218 50.8952 45.7273 50.7898C45.8327 50.6843 45.9758 50.625 46.125 50.625C46.2742 50.625 46.4173 50.6843 46.5227 50.7898C46.6282 50.8952 46.6875 51.0383 46.6875 51.1875V53.4375C46.6875 53.5867 46.6282 53.7298 46.5227 53.8352C46.4173 53.9407 46.2742 54 46.125 54H49.5V33.75ZM46.6875 48.375C46.6875 48.5242 46.6282 48.6673 46.5227 48.7727C46.4173 48.8782 46.2742 48.9375 46.125 48.9375C45.9758 48.9375 45.8327 48.8782 45.7273 48.7727C45.6218 48.6673 45.5625 48.5242 45.5625 48.375V46.6875C45.5625 46.5383 45.6218 46.3952 45.7273 46.2898C45.8327 46.1843 45.9758 46.125 46.125 46.125C46.2742 46.125 46.4173 46.1843 46.5227 46.2898C46.6282 46.3952 46.6875 46.5383 46.6875 46.6875V48.375ZM46.6875 42.75C46.6875 42.8992 46.6282 43.0423 46.5227 43.1477C46.4173 43.2532 46.2742 43.3125 46.125 43.3125C45.9758 43.3125 45.8327 43.2532 45.7273 43.1477C45.6218 43.0423 45.5625 42.8992 45.5625 42.75V41.0625C45.5625 40.9133 45.6218 40.7702 45.7273 40.6648C45.8327 40.5593 45.9758 40.5 46.125 40.5C46.2742 40.5 46.4173 40.5593 46.5227 40.6648C46.6282 40.7702 46.6875 40.9133 46.6875 41.0625V42.75Z" fill="#5092E1"/>
</g>
<defs>
<clipPath id="clip0">
<rect width="36" height="36" fill="white" transform="translate(18 18)"/>
</clipPath>
</defs>
</svg>
