<svg width="72" height="72" viewBox="0 0 72 72" fill="none" xmlns="http://www.w3.org/2000/svg">
<circle cx="36" cy="36" r="36" fill="white"/>
<path d="M21.3345 36.9023C21.5953 37.0063 21.8868 37.0031 22.1444 36.8928L28.385 34.2231C28.7781 34.0553 29.031 33.6654 29.0263 33.2376C29.0207 32.8099 28.7584 32.4262 28.3614 32.2671L26.6535 31.5825C28.2346 27.8611 31.9292 25.3253 36.0925 25.3253C40.2739 25.3253 43.9796 27.9021 45.5496 31.6203C46.0892 32.8965 47.4481 33.6236 48.8094 33.3597L49.0229 33.3188C49.891 33.1502 50.637 32.5987 51.0513 31.8196C51.4673 31.0398 51.5098 30.1141 51.1679 29.2988C48.6754 23.3614 42.768 19.2454 36.0949 19.2454C29.4123 19.2454 23.5214 23.237 21.006 29.3193L19.4534 28.6969C19.0555 28.537 18.601 28.6331 18.3024 28.9396C18.0031 29.246 17.9172 29.7021 18.0858 30.096L20.7563 36.3359C20.8666 36.5943 21.073 36.7983 21.3345 36.9023Z" fill="#5092E1"/>
<path d="M53.9142 41.9029L51.2444 35.6638C51.1326 35.4054 50.9254 35.2014 50.6646 35.0974C50.4039 34.9934 50.1132 34.9966 49.8556 35.1069L43.6149 37.7766C43.2211 37.9444 42.9682 38.3336 42.9729 38.7613C42.9784 39.1891 43.2408 39.5735 43.6378 39.7318L45.3465 40.4164C43.7646 44.1386 40.0708 46.6736 35.9075 46.6736C31.726 46.6736 28.0204 44.0968 26.4504 40.3786C25.9108 39.1024 24.5511 38.3753 23.1914 38.6392L22.9771 38.6802C22.1098 38.8488 21.3638 39.4002 20.9486 40.1793C20.5327 40.9592 20.4909 41.8848 20.8328 42.6993C23.3269 48.6383 29.2335 52.7544 35.9083 52.7544C42.5909 52.7544 48.4825 48.7635 50.9971 42.6804L52.5505 43.3028C52.9476 43.4627 53.4021 43.3666 53.7007 43.0593C53.9969 42.7537 54.0835 42.2968 53.9142 41.9029Z" fill="#5092E1"/>
</svg>
