<svg width="72" height="72" viewBox="0 0 72 72" fill="none" xmlns="http://www.w3.org/2000/svg">
<circle cx="36" cy="36" r="36" fill="white"/>
<g clip-path="url(#clip0)">
<path d="M29.2401 37.4607C30.3326 37.2806 30.9075 37.3152 33.0582 37.3152C28.0521 31.3548 29.3305 22.3154 35.9213 18.0007C29.9636 18.0728 25.1389 22.9476 25.1389 28.9289C25.1389 32.3761 26.7413 35.4559 29.2401 37.4607Z" fill="#5092E1"/>
<path d="M36.0443 37.3158H38.8918C40.6539 37.3158 42.1383 38.3801 42.7904 39.855C48.8459 40.0132 53.9533 35.0888 53.9533 28.9289C53.9534 22.9044 49.0588 18 43.0369 18C32.8158 18 28.2634 30.8015 36.0443 37.3158ZM41.978 23.3327V22.4344C41.978 21.8492 42.4524 21.3744 43.0369 21.3744C43.622 21.3744 44.0957 21.8492 44.0957 22.4344V23.3326C44.6052 23.3326 45.0568 23.3918 45.5851 23.6011V23.6018C46.1173 23.8124 46.6058 24.1424 47.0082 24.5721C47.4084 24.999 47.3865 25.6703 46.9595 26.0703C46.5143 26.486 45.8414 26.432 45.463 26.0215C45.1284 25.6646 44.6717 25.4576 44.2086 25.4526H41.7754C41.1111 25.4526 40.5691 25.9902 40.5691 26.6611C40.5691 27.3268 41.1105 27.8688 41.7754 27.8688H44.2983C46.1314 27.8688 47.623 29.3621 47.623 31.1973C47.623 32.8312 46.4239 34.5251 44.0957 34.5251V35.4232C44.0957 36.009 43.622 36.4832 43.0369 36.4832C42.4524 36.4832 41.978 36.009 41.978 35.4232V34.5251C41.5648 34.5251 40.5751 34.5904 39.4616 33.817C38.9809 33.4828 38.8616 32.8227 39.1955 32.3414C39.5286 31.8601 40.1886 31.7407 40.6686 32.075C40.9451 32.2687 41.2987 32.4018 41.6456 32.405H44.299C44.9682 32.405 45.5053 31.8628 45.5053 31.1973C45.5053 30.5309 44.9639 29.9888 44.2983 29.9888C43.3652 29.9888 42.7086 29.9888 41.7754 29.9888C39.943 29.9888 38.4514 28.4963 38.4514 26.6611C38.4514 24.9577 39.7351 23.3327 41.978 23.3327Z" fill="#5092E1"/>
<path d="M53.3113 44.3976C52.3931 43.4783 50.9031 43.4758 49.9824 44.3976L46.5278 47.8561C46.1495 48.2342 45.6363 48.4476 45.1012 48.4476H36.1081C34.8058 48.4476 33.7505 47.3912 33.7505 46.088C33.7505 44.7828 34.8079 43.727 36.1081 43.727H38.847C40.0261 43.727 41.0082 42.7974 41.0338 41.6317C41.0619 40.4217 40.0889 39.436 38.8921 39.436C31.702 39.436 36.1434 39.4353 31.0215 39.4353C28.409 39.4353 25.9245 40.5987 24.2492 42.6196L22.973 44.2417C22.9061 44.3268 22.8039 44.3764 22.6957 44.3764H18.7059C18.316 44.3764 18 44.6928 18 45.0831V53.2933C18 53.6837 18.316 54 18.7059 54H45.9765C46.6626 54 47.3197 53.7273 47.804 53.2425L53.3106 47.7296C54.2304 46.8095 54.229 45.3191 53.3113 44.3976Z" fill="#5092E1"/>
</g>
<defs>
<clipPath id="clip0">
<rect width="36" height="36" fill="white" transform="translate(18 18)"/>
</clipPath>
</defs>
</svg>
