<svg width="20" height="20" viewBox="0 0 20 20" fill="none" xmlns="http://www.w3.org/2000/svg">
<path d="M19.0992 14.5684L16.1335 12.0466C16.1198 12.035 16.1053 12.0243 16.0902 12.0147C15.3122 11.5194 14.3132 11.6291 13.6609 12.2813L12.0439 13.8981C11.9319 14.0102 11.7648 14.0433 11.6183 13.9829C9.79244 13.2276 8.2925 12.0905 7.16015 10.6036C6.29665 9.46967 5.98538 8.56864 5.94433 8.44169C5.93945 8.41453 5.93166 8.38752 5.92068 8.36112C5.8601 8.21464 5.89321 8.04786 6.00552 7.93586L7.62234 6.31858C8.27465 5.66627 8.38421 4.66727 7.88891 3.88923C7.88494 3.88297 7.88082 3.87687 7.87655 3.87076L5.73483 0.894536C5.061 -0.150843 3.59326 -0.308772 2.71237 0.571966L2.38857 0.895757C2.38842 0.896062 2.38812 0.896367 2.38781 0.89652L1.23181 2.05253C-0.146674 3.43116 -0.372199 5.50269 0.579797 8.04358C1.39523 10.2201 3.02761 12.6021 5.1762 14.7507C7.3756 16.9501 9.82205 18.6127 12.0648 19.4323C14.2846 20.2433 16.6459 20.3432 18.3172 18.6718L19.4075 17.5817C20.2844 16.7046 20.1313 15.2465 19.0992 14.5684ZM15.6495 12.6603L18.6126 15.18C18.6262 15.1916 18.6407 15.2022 18.6558 15.2119C19.2888 15.6148 19.3846 16.4999 18.8549 17.0293L18.7741 17.1104L13.7202 13.3265L14.2132 12.8336C14.5985 12.4482 15.1857 12.3785 15.6495 12.6603ZM5.08221 1.32377C5.08618 1.33002 5.09029 1.33628 5.09457 1.34223L7.23538 4.31739C7.52621 4.78293 7.45892 5.37726 7.06997 5.76621L6.59222 6.24412L3.17303 1.21604L3.26473 1.12433C3.7965 0.592565 4.68075 0.69312 5.08221 1.32377ZM12.3327 18.6985C10.1947 17.9172 7.84924 16.319 5.72857 14.1984C3.65704 12.127 2.08828 9.84382 1.31115 7.76954C0.727807 6.21253 0.336419 4.05265 1.78417 2.60505L2.61074 1.77833L6.02993 6.8064L5.4533 7.38334C5.12524 7.71079 5.02209 8.19541 5.18581 8.62693C5.30911 9.13291 5.87643 10.1832 6.44878 10.9571C7.29107 12.096 8.81985 13.6706 11.3197 14.7048C11.759 14.8865 12.2599 14.7867 12.5962 14.4506L13.1622 13.8845L18.2161 17.6684L17.7649 18.1194C16.2129 19.6715 13.9543 19.291 12.3327 18.6985Z" fill="#C0C5D0"/>
</svg>
