<svg width="17" height="17" viewBox="0 0 17 17" fill="none" xmlns="http://www.w3.org/2000/svg">
<path d="M8.50212 0H8.49788C3.81119 0 0 3.81225 0 8.5C0 10.3594 0.59925 12.0828 1.61819 13.4821L0.558875 16.6398L3.82606 15.5954C5.17013 16.4858 6.77344 17 8.50212 17C13.1888 17 17 13.1867 17 8.5C17 3.81331 13.1888 0 8.50212 0Z" fill="#4CAF50"/>
<path d="M13.4484 12.0031C13.2433 12.5821 12.4295 13.0624 11.7803 13.2026C11.3361 13.2972 10.756 13.3726 8.80314 12.563C6.3052 11.5281 4.69658 8.98982 4.5712 8.82513C4.45114 8.66045 3.56183 7.48107 3.56183 6.26132C3.56183 5.04157 4.18127 4.44763 4.43095 4.19263C4.63602 3.98332 4.97495 3.8877 5.30008 3.8877C5.40527 3.8877 5.49983 3.89301 5.58483 3.89726C5.83452 3.90788 5.95989 3.92276 6.12458 4.31695C6.32964 4.81101 6.82902 6.03076 6.88852 6.15613C6.94908 6.28151 7.00964 6.45151 6.92464 6.6162C6.84495 6.7862 6.77483 6.86163 6.64945 7.00613C6.52408 7.15063 6.40508 7.26113 6.2797 7.41626C6.16495 7.5512 6.03533 7.6957 6.17983 7.94538C6.32433 8.18976 6.8237 9.00469 7.55895 9.65919C8.50777 10.5039 9.27702 10.7738 9.5522 10.8885C9.75727 10.9735 10.0016 10.9533 10.1515 10.7939C10.3416 10.5889 10.5765 10.2489 10.8155 9.9142C10.9855 9.67407 11.2001 9.64432 11.4254 9.72932C11.6549 9.80901 12.8693 10.4093 13.119 10.5336C13.3687 10.659 13.5334 10.7185 13.594 10.8237C13.6535 10.9289 13.6535 11.4229 13.4484 12.0031Z" fill="#FAFAFA"/>
</svg>
