<svg width="22" height="22" viewBox="0 0 22 22" fill="none" xmlns="http://www.w3.org/2000/svg">
<rect width="22" height="22" rx="11" fill="#FFCA62"/>
<g clip-path="url(#clip0)">
<path d="M16.6484 10.6484C16.4542 10.6484 16.2968 10.8058 16.2968 11C16.2968 13.9207 13.9207 16.2968 11 16.2968C8.07929 16.2968 5.70314 13.9207 5.70314 11C5.70314 8.07929 8.07929 5.70314 11 5.70314C11.8906 5.70314 12.7569 5.92427 13.5303 6.34563L13.0907 6.78515C12.9902 6.8857 12.9601 7.03689 13.0145 7.16828C13.0689 7.29965 13.1971 7.38531 13.3393 7.38531H15.0215C15.2156 7.38531 15.373 7.22791 15.373 7.03375V5.35158C15.373 5.20939 15.2874 5.08121 15.156 5.02679C15.0246 4.97234 14.8734 5.00244 14.7729 5.10301L14.0459 5.82996C13.1251 5.28629 12.0782 5.00005 11 5.00005C9.39732 5.00005 7.89058 5.62416 6.75733 6.75738C5.62409 7.89065 5 9.39736 5 11C5 12.6027 5.62409 14.1094 6.75733 15.2426C7.8906 16.3759 9.39732 17 11 17C12.6026 17 14.1093 16.3759 15.2426 15.2426C16.3758 14.1094 16.9999 12.6027 16.9999 11C17 10.8058 16.8425 10.6484 16.6484 10.6484Z" fill="#DE9B1A"/>
<path d="M13.2593 10.6483H11.3516V8.74048C11.3516 8.54632 11.1942 8.38892 11 8.38892C10.8058 8.38892 10.6484 8.54632 10.6484 8.74048V10.9998C10.6484 11.194 10.8058 11.3514 11 11.3514H13.2593C13.4535 11.3514 13.6109 11.194 13.6109 10.9998C13.6109 10.8057 13.4535 10.6483 13.2593 10.6483Z" fill="#DE9B1A"/>
</g>
<defs>
<clipPath id="clip0">
<rect width="12" height="12" fill="white" transform="translate(5 5)"/>
</clipPath>
</defs>
</svg>
