<svg width="46" height="46" viewBox="0 0 46 46" fill="none" xmlns="http://www.w3.org/2000/svg">
<g clip-path="url(#clip0)">
<path d="M41.2745 11.9427L29.7265 0.394773C29.4737 0.141953 29.1309 0 28.7735 0H9.28649C6.55344 0 4.33008 2.22345 4.33008 4.95641V41.0436C4.33008 43.7765 6.55344 46 9.28649 46H36.7128C39.4458 46 41.6692 43.7765 41.6692 41.0436V12.8955C41.6691 12.5381 41.5272 12.1953 41.2745 11.9427ZM30.1212 4.60117L37.068 11.5479H32.3823C31.1355 11.5479 30.1212 10.5336 30.1212 9.28688V4.60117ZM36.7127 43.3047H9.28649C8.03973 43.3047 7.02539 42.2904 7.02539 41.0436V4.95641C7.02539 3.70965 8.03973 2.69531 9.28649 2.69531H27.4258V9.28688C27.4258 12.0198 29.6493 14.2432 32.3823 14.2432H38.9738V41.0436C38.9738 42.2904 37.9595 43.3047 36.7127 43.3047Z" fill="#F30B0B"/>
<path d="M22.9999 17.3218C16.6852 17.3218 11.5479 22.4592 11.5479 28.7739C11.5479 35.0886 16.6852 40.226 22.9999 40.226C29.3146 40.226 34.452 35.0886 34.452 28.7739C34.452 22.4592 29.3146 17.3218 22.9999 17.3218ZM22.9999 37.5306C18.1714 37.5306 14.2432 33.6023 14.2432 28.7738C14.2432 23.9453 18.1714 20.017 22.9999 20.017C27.8284 20.017 31.7567 23.9453 31.7567 28.7738C31.7567 33.6023 27.8284 37.5306 22.9999 37.5306Z" fill="#F30B0B"/>
<path d="M27.0156 24.759C26.4893 24.2327 25.6361 24.2327 25.1098 24.759L23.0006 26.8682L20.8914 24.759C20.3652 24.2328 19.5119 24.2328 18.9855 24.759C18.4592 25.2852 18.4592 26.1385 18.9855 26.6648L21.0947 28.774L18.9855 30.8832C18.4592 31.4094 18.4592 32.2627 18.9855 32.789C19.2487 33.0523 19.5935 33.1837 19.9384 33.1837C20.2833 33.1837 20.6283 33.0521 20.8913 32.789L23.0005 30.6799L25.1097 32.789C25.3728 33.0522 25.7177 33.1837 26.0625 33.1837C26.4075 33.1837 26.7524 33.0521 27.0154 32.789C27.5417 32.2628 27.5417 31.4095 27.0154 30.8832L24.9063 28.774L27.0154 26.6648C27.5419 26.1386 27.5419 25.2852 27.0156 24.759Z" fill="#F30B0B"/>
</g>
<defs>
<clipPath id="clip0">
<rect width="46" height="46" fill="white"/>
</clipPath>
</defs>
</svg>
