<svg width="22" height="22" viewBox="0 0 22 22" fill="none" xmlns="http://www.w3.org/2000/svg">
<rect width="22" height="22" rx="11" fill="#FFCA62"/>
<path d="M12.495 7.168C12.2283 7.44533 11.8977 7.584 11.503 7.584C11.1083 7.584 10.7723 7.44533 10.495 7.168C10.2283 6.89067 10.095 6.55467 10.095 6.16C10.095 5.76533 10.2283 5.43467 10.495 5.168C10.7723 4.89067 11.1083 4.752 11.503 4.752C11.8977 4.752 12.2283 4.89067 12.495 5.168C12.7723 5.43467 12.911 5.76533 12.911 6.16C12.911 6.55467 12.7723 6.89067 12.495 7.168ZM12.735 16H10.271V8.272H12.735V16Z" fill="#DE9B1A"/>
</svg>
